<svg width="24" height="24" viewBox="0 0 24 24" fill="none" xmlns="http://www.w3.org/2000/svg">
<path d="M11.9709 12.0392C13.0414 12.0252 13.9207 12.8816 13.9348 13.9521C13.9489 15.0227 13.0925 15.9019 12.0219 15.916C10.9514 15.9302 10.0721 15.0737 10.058 14.0032C10.0439 12.9326 10.9003 12.0533 11.9709 12.0392Z" fill="#667F99"/>
<path d="M6.17685 10.3515C7.24328 10.2566 8.18466 11.0444 8.27941 12.1108C8.37412 13.1772 7.58637 14.1185 6.51991 14.2132C5.45359 14.3078 4.51242 13.5202 4.4177 12.4538C4.32297 11.3875 5.11055 10.4463 6.17685 10.3515Z" fill="#667F99"/>
<path d="M17.4983 10.3513C18.5665 10.2705 19.4977 11.0714 19.5776 12.1396C19.6575 13.2078 18.8559 14.1384 17.7876 14.2174C16.7206 14.2964 15.7914 13.4959 15.7115 12.4289C15.6317 11.362 16.4314 10.4321 17.4983 10.3513Z" fill="#667F99"/>
<path d="M5.16194 6.95773C5.27186 6.94623 5.38264 6.96915 5.47894 7.02337C5.60028 7.09037 5.68977 7.20316 5.72747 7.33654C5.76601 7.4766 5.7461 7.6263 5.67231 7.75142C5.63356 7.8159 5.58138 7.86954 5.5198 7.91251C5.36434 8.02096 5.16974 8.0969 5 8.18187C4.76846 8.29782 4.40091 8.51164 4.15996 8.57397C4.0334 8.58072 3.91536 8.55917 3.80836 8.48872C3.68952 8.41046 3.60208 8.29318 3.57531 8.15171C3.54792 8.00834 3.57968 7.85998 3.66336 7.74038C3.70392 7.68118 3.75469 7.63713 3.81457 7.59817C3.9636 7.50121 4.14265 7.42773 4.3019 7.34807C4.51427 7.24186 4.94244 6.9977 5.16194 6.95773Z" fill="#667F99"/>
<path d="M18.7185 6.95755C18.796 6.95196 18.8685 6.95962 18.9424 6.98371C19.1162 7.04038 19.289 7.14669 19.4532 7.22868C19.6777 7.34072 19.9109 7.44552 20.1291 7.56867C20.2717 7.64918 20.3705 7.7473 20.4143 7.9086C20.4507 8.04279 20.4302 8.1991 20.3584 8.318C20.2715 8.462 20.1359 8.53203 19.978 8.57285C19.8964 8.57946 19.8209 8.57162 19.7431 8.54588C19.5755 8.49047 19.3518 8.35917 19.1879 8.27736C18.9699 8.16862 18.7074 8.05619 18.5032 7.92913C18.3813 7.8533 18.2958 7.74421 18.2656 7.60183C18.2363 7.46408 18.2609 7.3063 18.3384 7.18796C18.429 7.04973 18.561 6.9881 18.7185 6.95755Z" fill="#667F99"/>
<path d="M9.23574 3H9.74491C9.7473 3.00089 9.74969 3.00181 9.75211 3.00266C9.83607 3.03227 9.93138 3.04141 10.0186 3.06C10.1372 3.08529 10.2606 3.12463 10.3722 3.17182C10.924 3.40502 11.272 3.82275 11.6843 4.23551C11.7842 4.33558 11.8877 4.45841 12.0011 4.54222C12.5267 4.06144 12.9307 3.47511 13.6007 3.18065C13.7266 3.12531 13.8612 3.08541 13.9955 3.05648C14.0744 3.03951 14.1716 3.03191 14.245 3H14.7492C14.8316 3.0293 14.9235 3.03519 15.009 3.05403C15.1512 3.08538 15.2938 3.1344 15.4271 3.19275C15.9877 3.43899 16.4268 3.89875 16.647 4.47001C16.8657 5.04132 16.8487 5.67605 16.5997 6.23483C16.5052 6.44528 16.3798 6.64041 16.2276 6.81377C16.0266 7.04288 15.7958 7.25431 15.5798 7.46999L14.4249 8.6246L13.0886 9.96139C12.8543 10.1961 12.626 10.4438 12.3807 10.6666C12.315 10.7263 12.247 10.776 12.1627 10.8059C12.0376 10.8505 11.9008 10.8399 11.7816 10.7834C11.7194 10.7539 11.6642 10.711 11.6138 10.6645C11.3507 10.4221 11.1031 10.1551 10.85 9.90155L9.37436 8.42572L8.32888 7.38094C8.13085 7.18308 7.9172 6.98976 7.73759 6.77541C7.55706 6.56321 7.41732 6.31945 7.32542 6.05643C7.12302 5.47406 7.16187 4.83494 7.43328 4.28136C7.70247 3.73237 8.17982 3.31367 8.7592 3.11835C8.857 3.08523 8.95474 3.06331 9.05574 3.04262C9.10911 3.03169 9.16827 3.02462 9.21946 3.0061C9.22491 3.00413 9.23032 3.00203 9.23574 3Z" fill="#36C99F"/>
<path d="M19.6637 14.4995C19.8232 14.5555 19.9875 14.6203 20.1362 14.7008C20.5027 14.8981 20.7805 15.2274 20.9132 15.622C20.9502 15.7349 20.9664 15.8535 21 15.9674V20.569C20.9082 20.7886 20.8578 20.8813 20.6243 20.9781C20.6152 20.9819 20.606 20.9854 20.5969 20.9891C20.5835 20.9945 20.5888 20.9919 20.5763 21.0001H16.3166C16.3579 20.8687 16.3875 20.735 16.3983 20.5976C16.4129 20.4096 16.406 20.2183 16.4058 20.0298L16.4058 19.1197L16.406 18.2289C16.406 18.0111 16.4116 17.7914 16.39 17.5744C16.3657 17.3293 16.3082 17.0887 16.2191 16.8591C15.931 16.1184 15.4055 15.6421 14.6879 15.3255C14.6831 15.3079 14.6861 15.3001 14.6918 15.2831C14.7082 15.2346 14.7365 15.1895 14.7564 15.1422C14.7815 15.0822 14.7976 15.0148 14.8285 14.9579C14.9393 14.7539 15.4147 14.5723 15.6364 14.5029C15.7466 14.586 15.8499 14.6763 15.9638 14.7548C16.3435 15.0158 16.7791 15.1841 17.2356 15.2462C17.9245 15.3431 18.6256 15.195 19.2165 14.8278C19.3745 14.7295 19.5161 14.6121 19.6637 14.4995Z" fill="#667F99"/>
<path d="M8.36203 14.5015C8.58408 14.5653 9.05964 14.7611 9.17052 14.9618C9.22663 15.0633 9.27968 15.2082 9.31874 15.319C9.16725 15.3931 9.01485 15.459 8.87064 15.5475C8.34326 15.8732 7.94497 16.3714 7.74342 16.9576C7.67406 17.1595 7.62906 17.3689 7.60937 17.5814C7.58838 17.81 7.59345 18.0397 7.59345 18.269L7.59362 19.176L7.59338 20.0531C7.59331 20.233 7.58673 20.4159 7.60086 20.5953C7.6118 20.7337 7.64203 20.8675 7.68267 21.0001H3.42244C3.24306 20.9202 3.14496 20.8775 3.05042 20.6938C3.03448 20.6628 3.02437 20.6295 3.00791 20.5987L3 20.5842V15.93C3.00233 15.9256 3.00475 15.9212 3.00699 15.9167C3.05374 15.8224 3.06849 15.6542 3.114 15.5417C3.33094 15.0053 3.7037 14.7341 4.229 14.5396C4.26512 14.5262 4.30096 14.5139 4.33832 14.5043C4.48382 14.6176 4.62476 14.7331 4.78171 14.8306C5.36558 15.191 6.05589 15.339 6.73616 15.2496C7.19829 15.1906 7.63971 15.0224 8.0239 14.759C8.1403 14.6787 8.24461 14.5781 8.36203 14.5015Z" fill="#667F99"/>
<path d="M14.0167 16.1931C14.1621 16.25 14.3104 16.3043 14.4497 16.3754C14.7866 16.5455 15.0546 16.8267 15.2083 17.1715C15.2759 17.3244 15.3245 17.4962 15.34 17.663C15.3551 17.8257 15.3496 17.9921 15.3496 18.1555L15.3499 18.9105V19.9232C15.3498 20.1031 15.3562 20.2854 15.3478 20.465C15.3449 20.5275 15.3396 20.6007 15.3163 20.659C15.2559 20.8098 15.1417 20.9089 14.9941 20.9705C14.9715 20.9799 14.9482 20.9875 14.9272 21.0001H9.06705C8.90115 20.9126 8.7338 20.8435 8.67302 20.6438C8.65231 20.5757 8.65083 20.486 8.64827 20.4148C8.64127 20.2205 8.64665 20.0241 8.64679 19.8297V18.7858L8.6469 18.1321C8.64704 17.9547 8.64212 17.7728 8.66795 17.5969C8.69984 17.3811 8.77451 17.1739 8.88758 16.9874C9.15606 16.537 9.51079 16.3735 9.97837 16.1956L9.98765 16.2016C10.0588 16.2485 10.1228 16.306 10.1899 16.3584C10.2776 16.426 10.3691 16.4885 10.4638 16.5458C11.1018 16.9273 11.8591 17.0576 12.5879 16.9113C12.988 16.8312 13.3669 16.6689 13.7009 16.4346C13.8089 16.3587 13.9067 16.2645 14.0167 16.1931Z" fill="#667F99"/>
<path d="M19.7933 3H20.0133C20.045 3.01884 20.0826 3.03006 20.1161 3.04585C20.2212 3.09533 20.3179 3.17557 20.3741 3.27815C20.4395 3.39745 20.4481 3.55953 20.4072 3.68874C20.3536 3.85792 20.2294 3.95458 20.0782 4.03375C19.8836 4.13561 19.6838 4.22822 19.4876 4.32719C19.3275 4.40803 19.0659 4.56499 18.9031 4.6036C18.8086 4.62623 18.7098 4.62273 18.6172 4.59346C18.4845 4.55128 18.3657 4.45097 18.3039 4.326C18.2434 4.20361 18.2386 4.04836 18.2822 3.91943C18.3143 3.82355 18.3738 3.73916 18.4533 3.67665C18.5698 3.58363 18.7252 3.52686 18.858 3.46029L19.7933 3Z" fill="#667F99"/>
<path d="M3.97757 3H4.20096C4.26051 3.03935 4.34581 3.06548 4.4118 3.09766L5.10633 3.4435C5.2366 3.50859 5.38232 3.56848 5.50268 3.65C5.56728 3.69376 5.62385 3.7438 5.6659 3.81044C5.74155 3.9303 5.76531 4.08553 5.73148 4.22295C5.69798 4.35901 5.59871 4.48127 5.4786 4.55132C5.35819 4.62154 5.217 4.63407 5.08366 4.59872C4.90625 4.5517 4.57386 4.35822 4.38927 4.26629C4.20328 4.17366 3.96 4.07555 3.79478 3.9618C3.72533 3.91475 3.66796 3.85199 3.62732 3.7786C3.55789 3.65178 3.55007 3.49212 3.59326 3.35497C3.65655 3.15404 3.80535 3.08777 3.97757 3Z" fill="#667F99"/>
</svg>
